<?xml version="1.0" standalone="no"?>
<!DOCTYPE svg PUBLIC "-//W3C//DTD SVG 20010904//EN"
 "http://www.w3.org/TR/2001/REC-SVG-20010904/DTD/svg10.dtd">
<svg version="1.0" xmlns="http://www.w3.org/2000/svg"
 width="740.000000pt" height="493.000000pt" viewBox="0 0 740.000000 493.000000"
 preserveAspectRatio="xMidYMid meet">
<metadata>
Created by potrace 1.16, written by Peter Selinger 2001-2019
</metadata>
<g transform="translate(0.000000,493.000000) scale(0.100000,-0.100000)"
fill="#000000" stroke="none">
<path d="M1875 4900 c-38 -28 -99 -63 -250 -145 -38 -21 -79 -44 -90 -51 -11
-8 -27 -14 -35 -14 -25 0 -120 -49 -126 -65 -3 -8 -21 -19 -39 -25 -19 -6 -66
-43 -104 -81 -61 -60 -70 -73 -67 -99 2 -17 10 -38 19 -48 9 -9 23 -31 31 -47
l16 -30 0 26 c0 15 7 43 15 64 9 20 13 44 10 54 -7 23 32 61 40 39 3 -8 -1
-31 -10 -51 -8 -20 -13 -48 -9 -61 3 -13 1 -27 -5 -30 -15 -9 -14 -83 0 -88 8
-3 6 -14 -5 -36 -16 -31 -16 -32 4 -32 11 0 20 -7 20 -15 0 -8 -9 -15 -20 -15
-13 0 -20 -7 -20 -19 0 -17 4 -19 33 -11 31 9 32 9 11 -8 -11 -9 -26 -26 -32
-37 -11 -20 -11 -20 -12 0 0 13 -7 5 -20 -23 -16 -35 -19 -64 -19 -170 1 -70
4 -131 7 -137 4 -5 5 -38 3 -72 -2 -50 0 -63 15 -71 15 -9 16 -13 5 -26 -20
-24 -39 -19 -56 14 -8 16 -24 34 -35 40 -11 6 -20 19 -20 30 0 10 -4 22 -10
25 -9 5 -15 -11 -22 -60 -2 -11 -8 -20 -13 -20 -17 0 -17 43 1 80 18 39 15 48
-27 69 -29 14 -38 39 -13 34 11 -2 19 3 18 10 -1 6 -2 24 -2 38 -2 23 -4 25
-18 13 -9 -7 -26 -14 -37 -14 -86 -5 -87 -5 -87 -24 0 -10 8 -22 18 -26 15 -6
14 -8 -5 -16 -18 -7 -23 -16 -23 -46 0 -46 19 -87 42 -91 12 -2 20 8 28 37 9
34 15 41 35 41 27 0 44 -35 26 -53 -6 -6 -11 -19 -11 -30 0 -14 -5 -17 -20
-12 -43 14 -16 -12 42 -39 41 -19 63 -25 66 -18 2 8 19 4 51 -12 l47 -24 -3
-56 c-1 -31 0 -56 2 -56 2 0 15 4 28 9 19 8 27 6 31 -5 4 -9 -3 -18 -18 -23
-21 -9 -22 -13 -16 -62 4 -29 12 -55 18 -57 17 -5 14 -42 -3 -42 -10 0 -15
-10 -15 -30 0 -22 5 -30 18 -30 28 0 39 13 48 55 8 33 14 41 37 43 21 3 27 -1
27 -17 0 -11 -9 -22 -21 -26 -15 -5 -19 -13 -15 -28 6 -25 -19 -57 -44 -57
-22 0 -32 -11 -21 -24 5 -6 11 -22 13 -35 2 -19 12 -27 46 -35 55 -14 55 -30
1 -34 l-42 -3 7 -46 c3 -26 8 -49 11 -52 8 -7 104 -18 110 -13 9 9 5 83 -5
101 -5 10 -11 38 -12 62 -3 39 -1 44 16 41 11 -2 26 4 33 14 7 10 16 14 20 11
3 -4 -4 -18 -17 -32 -22 -23 -22 -25 -6 -49 10 -16 16 -46 16 -79 0 -55 12
-77 42 -77 27 0 22 -19 -8 -26 -24 -6 -25 -10 -22 -58 l3 -51 35 1 c19 0 37
-3 40 -8 3 -4 18 -1 32 6 32 17 38 12 38 -28 0 -28 1 -29 14 -11 9 12 12 33 8
57 -3 27 1 50 14 73 14 27 16 37 6 47 -7 7 -12 38 -12 72 0 70 -12 99 -28 71
-20 -36 -42 7 -26 50 5 13 9 14 15 4 12 -19 21 -5 25 37 3 36 -19 84 -38 84
-5 0 -6 -17 -3 -37 l6 -38 -19 24 c-11 13 -24 21 -31 17 -22 -14 -33 5 -17 29
15 22 14 24 -7 27 -32 4 -28 32 6 36 22 3 27 -1 27 -17 0 -12 4 -21 8 -21 15
0 32 24 32 44 0 15 3 17 9 8 5 -9 10 1 14 30 4 24 9 54 12 68 6 24 6 24 -7 5
-7 -11 -22 -20 -33 -20 -16 0 -21 -8 -23 -42 -4 -50 -17 -56 -27 -13 -6 26
-10 29 -31 24 -15 -4 -24 -2 -24 6 0 6 9 14 20 17 11 3 20 9 20 13 0 18 -13
40 -20 35 -5 -3 -6 4 -3 16 3 12 -2 31 -14 47 -11 15 -22 41 -26 57 -3 17 -9
38 -12 48 -11 28 13 19 27 -10 11 -24 18 -28 48 -25 l35 3 -27 -22 c-25 -20
-26 -23 -13 -53 7 -17 18 -44 25 -61 l12 -30 22 26 c14 16 32 26 47 25 23 -1
24 1 21 59 -3 82 -7 90 -32 65 -33 -33 -47 -26 -46 25 1 44 1 45 18 22 15 -19
19 -20 32 -7 14 15 13 35 -10 119 -4 13 -18 12 -58 -4 -35 -15 -12 19 27 38
25 13 37 26 38 40 0 12 2 33 5 47 2 14 6 44 10 68 3 23 10 45 15 48 12 7 12
57 -1 70 -5 5 -15 36 -23 69 -25 106 3 229 69 305 7 8 20 29 28 45 9 17 16 24
16 17 0 -8 21 -1 60 20 59 31 60 33 60 74 0 46 25 80 36 50 3 -9 2 -22 -3 -29
-6 -6 -13 -22 -16 -34 -5 -22 -3 -23 78 -23 77 0 89 -3 157 -38 59 -30 82 -49
121 -101 30 -40 46 -55 42 -40 -3 13 -2 45 3 70 5 26 5 54 1 62 -6 9 -3 19 6
27 8 7 15 11 16 9 0 -2 1 -53 2 -114 1 -60 6 -116 10 -123 5 -7 5 -22 1 -35
-14 -40 -13 -47 7 -47 10 0 19 -7 19 -15 0 -8 -6 -15 -13 -15 -7 0 -13 -8 -14
-17 -1 -10 -5 -33 -9 -50 -3 -18 -4 -44 0 -57 5 -22 10 -24 48 -20 l43 3 -37
-11 c-44 -13 -50 -26 -40 -93 7 -49 9 -50 40 -48 18 0 47 8 65 16 29 14 32 19
30 59 -1 24 -5 63 -9 88 -3 25 -6 64 -6 88 0 40 -1 42 -29 42 -19 0 -29 5 -29
15 0 10 10 15 31 15 28 0 30 3 25 23 -3 13 -1 39 4 59 7 23 7 45 1 61 -11 27
-3 107 10 107 5 0 9 -9 9 -19 0 -11 4 -22 9 -25 5 -4 5 -20 -2 -41 -7 -25 -7
-45 1 -74 7 -21 9 -52 6 -68 -6 -29 -5 -30 25 -25 24 3 31 1 31 -13 0 -14 -7
-16 -30 -13 -26 4 -30 2 -30 -20 0 -16 7 -26 21 -29 20 -5 19 -6 -3 -17 -27
-14 -35 -50 -17 -82 7 -13 9 -27 6 -31 -4 -3 -1 -13 6 -21 6 -8 12 -24 12 -35
0 -16 8 -20 43 -22 60 -4 63 -12 7 -21 l-47 -7 6 -56 c4 -31 11 -60 16 -65 6
-6 31 -5 65 3 68 15 74 31 45 120 -11 35 -20 70 -20 78 0 14 -11 13 -56 -4
-18 -7 -29 18 -13 28 8 5 24 8 37 6 27 -5 35 18 30 84 l-3 44 -45 -2 c-44 -3
-44 -2 -20 12 14 8 33 14 43 15 21 0 23 20 2 20 -8 0 -15 7 -15 15 0 10 10 15
30 15 22 0 30 -5 30 -18 0 -10 3 -22 7 -25 4 -4 5 -32 4 -62 -2 -44 1 -55 13
-55 19 0 32 -20 19 -29 -33 -21 -34 -75 -3 -161 17 -46 29 -60 51 -60 11 0 19
-4 19 -10 0 -5 -12 -10 -26 -10 -26 0 -26 0 -19 -57 4 -32 10 -62 15 -67 5 -5
33 -5 67 0 56 9 58 10 61 42 2 20 -3 41 -11 50 -8 10 -18 43 -22 75 -7 62 -23
79 -56 59 -10 -7 -29 -12 -41 -11 -18 0 -16 3 11 13 53 19 58 35 31 100 -13
31 -27 56 -32 56 -4 0 -7 15 -6 33 1 40 -20 107 -34 107 -6 0 -8 10 -4 24 5
21 -17 107 -34 131 -4 6 -8 25 -8 43 0 18 -8 46 -16 64 -27 54 -10 42 23 -16
18 -30 39 -81 47 -113 24 -93 37 -97 63 -16 23 73 20 106 -15 144 -12 13 -12
19 -3 25 7 4 17 0 25 -10 10 -15 15 -15 33 -5 28 18 36 6 15 -26 -11 -17 2 -9
33 21 47 44 50 50 32 56 -16 6 -19 13 -13 30 9 30 22 38 60 38 30 0 64 25 64
47 0 5 9 18 20 28 11 10 20 28 20 40 0 13 7 29 16 36 11 9 14 23 11 46 -5 30
-4 32 14 23 11 -6 24 -8 29 -5 6 3 15 -5 21 -18 6 -13 24 -27 42 -33 31 -9 32
-11 29 -53 -3 -32 -10 -50 -27 -63 -12 -9 -25 -31 -27 -47 -4 -26 0 -32 24
-40 21 -8 30 -7 33 2 6 14 30 100 48 170 6 26 18 47 25 47 9 0 10 -5 3 -18 -5
-10 -13 -42 -17 -71 -6 -44 -4 -54 12 -66 18 -14 18 -14 -3 -15 -25 0 -29 -4
-37 -45 -5 -28 -2 -32 59 -70 35 -22 65 -45 65 -51 0 -7 11 -31 24 -54 l24
-42 7 60 c4 34 12 65 18 70 7 6 30 7 52 3 25 -4 35 -9 27 -14 -7 -5 -21 -6
-31 -2 -10 3 -23 0 -28 -7 -13 -16 -25 -106 -15 -111 4 -3 35 -7 69 -11 l62
-7 11 42 c7 24 10 58 8 78 -3 19 2 52 9 74 8 22 11 48 8 59 -4 10 -1 26 6 34
7 9 10 32 6 63 -4 35 -2 53 7 60 21 18 41 -12 26 -38 -6 -12 -10 -42 -10 -68
0 -27 -1 -68 -2 -93 -3 -43 -2 -45 32 -57 l35 -12 -37 0 c-20 -1 -39 -5 -42
-10 -4 -5 -9 -37 -12 -70 l-7 -61 43 0 c51 0 47 -10 -7 -19 -38 -6 -38 -6 -41
-59 -2 -41 0 -53 10 -50 110 33 106 30 112 67 3 20 6 47 6 61 1 32 27 67 40
54 5 -5 37 -7 72 -4 l63 5 8 49 c10 63 5 76 -35 76 -27 1 -30 2 -15 11 9 5 21
8 26 5 18 -12 32 25 33 86 0 108 4 182 12 211 19 64 38 5 27 -80 -4 -29 -3
-59 1 -67 5 -9 5 -24 -2 -35 -12 -23 -13 -100 -2 -118 4 -7 26 -17 47 -22 l40
-10 -46 5 c-45 5 -46 4 -53 -27 -10 -49 -7 -87 7 -96 6 -4 30 -10 52 -14 l40
-6 -51 -2 c-57 -1 -64 -8 -64 -69 0 -57 9 -63 81 -60 l64 3 2 70 c2 68 3 149
2 190 0 11 2 38 5 59 2 22 0 48 -5 59 -7 12 -7 22 -1 30 6 7 9 39 8 72 -2 33
0 65 4 70 13 19 20 75 11 98 -6 15 -5 29 4 41 13 17 14 16 25 -4 9 -16 9 -29
2 -44 -16 -33 -21 -79 -10 -99 7 -13 6 -23 -1 -30 -15 -15 -14 -90 1 -105 9
-9 9 -15 0 -24 -15 -15 -16 -82 -2 -108 7 -13 7 -21 0 -25 -13 -8 -13 -102 0
-110 8 -5 8 -11 0 -20 -6 -7 -10 -37 -8 -67 3 -50 5 -53 33 -59 l30 -6 -30 -4
c-27 -4 -31 -8 -37 -49 -9 -64 -3 -80 35 -81 l32 -1 -35 -12 c-35 -13 -35 -13
-35 -72 l0 -59 40 -1 c62 -2 65 -7 10 -13 l-50 -6 -3 -68 -3 -68 73 3 73 3 3
80 c9 206 9 198 -18 206 -23 6 -23 7 -3 8 29 1 32 16 33 161 0 69 0 148 1 175
1 150 1 151 -4 280 -2 61 -6 117 -10 125 -4 8 -2 22 3 30 9 13 12 12 25 -4 9
-11 11 -25 6 -33 -4 -8 -4 -34 0 -57 4 -22 5 -60 2 -82 -3 -23 -1 -44 4 -47 5
-3 8 -58 6 -122 -1 -65 2 -125 7 -135 7 -13 7 -21 0 -25 -17 -10 -12 -105 5
-112 14 -5 14 -7 0 -23 -12 -13 -16 -37 -16 -82 0 -34 -2 -85 -4 -113 -3 -27
-1 -56 4 -64 5 -8 34 -15 74 -18 57 -5 66 -3 71 13 3 11 6 82 6 159 0 77 1
156 1 175 3 149 -15 572 -26 614 -6 22 -5 28 6 24 8 -3 14 -16 15 -30 1 -13 6
-33 11 -42 6 -10 8 -38 5 -62 -3 -27 0 -50 7 -58 8 -10 9 -21 3 -31 -5 -9 -5
-37 -2 -62 4 -25 5 -65 2 -88 -2 -23 1 -51 7 -63 7 -14 8 -23 1 -27 -12 -7
-14 -82 -2 -89 4 -2 6 -65 5 -139 -3 -139 -2 -144 38 -152 36 -7 36 -18 1 -13
-29 4 -35 1 -44 -21 -5 -14 -7 -44 -4 -66 3 -22 5 -44 5 -50 0 -5 -1 -41 -2
-80 -2 -65 0 -70 20 -73 13 -2 23 -12 26 -25 l4 -22 2 23 c1 19 7 22 39 22 21
0 43 5 50 12 15 15 16 120 1 135 -8 8 -8 13 0 17 16 10 14 123 -1 129 -10 4
-10 7 -1 14 11 8 15 53 13 133 -5 224 -4 410 2 410 13 0 20 -22 23 -74 2 -28
4 -55 4 -61 0 -5 -2 -29 -5 -53 -3 -23 -3 -50 1 -60 4 -9 7 -76 6 -149 -1
-111 2 -134 15 -141 15 -8 15 -10 0 -15 -12 -5 -16 -20 -16 -66 0 -33 5 -63
10 -66 7 -4 8 -11 1 -18 -13 -17 -24 -102 -17 -131 4 -18 17 -26 52 -35 26 -7
51 -8 55 -4 5 5 10 42 11 83 1 41 7 88 13 104 l12 29 5 -39 c3 -21 1 -43 -3
-49 -12 -12 -11 -162 0 -170 6 -3 15 4 21 15 14 25 32 26 48 0 9 -15 9 -32 1
-72 -10 -44 -13 -49 -20 -32 -10 30 -27 38 -45 23 -13 -10 -12 -14 3 -31 15
-17 42 -81 43 -100 0 -20 -41 -28 -72 -15 -18 8 -38 12 -45 10 -24 -8 -51 16
-46 39 3 14 1 19 -4 12 -4 -6 -16 -13 -26 -17 -13 -5 -17 -13 -12 -28 4 -13 2
-25 -5 -29 -18 -11 18 -44 53 -48 27 -3 37 11 16 24 -15 9 9 24 27 17 21 -8
13 -55 -11 -61 -18 -5 -18 -6 4 -12 28 -6 42 -44 30 -75 -4 -11 -8 -14 -8 -7
-1 6 -6 12 -11 12 -7 0 -7 -6 0 -20 6 -11 17 -20 25 -20 11 0 13 14 10 63 -3
34 0 74 6 90 13 32 49 38 49 7 0 -10 7 -23 15 -27 8 -5 18 -24 21 -42 7 -32 6
-34 -18 -29 -21 4 -25 1 -25 -23 0 -23 4 -26 24 -23 20 4 23 0 23 -25 0 -24
-5 -29 -31 -35 -17 -3 -35 -3 -40 0 -5 3 -9 -2 -9 -11 0 -14 -9 -15 -57 -10
-51 5 -60 3 -71 -15 -10 -17 -10 -20 3 -20 8 0 15 -4 15 -10 0 -14 28 -12 33
3 3 9 7 9 20 -2 10 -7 17 -10 17 -5 0 5 9 -2 20 -16 11 -14 20 -29 19 -35 0
-5 -6 -2 -14 9 -8 11 -21 16 -30 13 -18 -7 -21 -49 -2 -46 30 4 47 -2 47 -16
0 -8 -4 -15 -10 -15 -6 0 -6 -9 -1 -23 5 -13 9 -30 8 -38 -1 -8 28 -43 65 -78
61 -57 68 -61 69 -40 8 170 11 212 15 261 3 32 1 65 -5 76 -6 12 -7 23 -2 26
12 8 12 464 0 472 -6 3 -5 11 2 20 13 16 21 167 24 449 1 123 4 150 16 150 11
0 14 -19 14 -90 0 -49 -3 -114 -7 -144 -4 -29 -3 -61 1 -70 6 -10 5 -36 -2
-65 -8 -35 -8 -56 0 -77 6 -16 8 -31 3 -34 -14 -9 -22 -95 -10 -110 8 -10 8
-19 1 -34 -14 -26 -14 -114 0 -128 8 -8 8 -17 0 -31 -14 -26 -14 -117 -1 -142
7 -13 7 -21 0 -25 -9 -5 -11 -49 -11 -257 1 -27 0 -56 0 -65 -1 -10 -3 -54 -5
-98 -2 -44 -5 -89 -6 -99 -2 -13 8 -27 30 -40 18 -12 54 -36 80 -55 26 -19 79
-53 117 -74 61 -35 108 -65 217 -139 15 -10 30 -18 34 -18 3 0 18 -9 33 -19
15 -11 33 -19 41 -18 8 1 46 -9 83 -21 120 -39 248 -55 255 -33 2 6 15 11 29
11 16 0 27 7 30 19 7 27 25 32 127 37 79 3 93 1 139 -23 123 -62 252 -246 264
-376 9 -104 5 -318 -8 -371 -15 -63 -45 -101 -124 -156 -22 -15 -55 -46 -72
-68 -43 -54 -117 -87 -238 -108 -84 -14 -113 -15 -204 -5 -58 7 -118 14 -134
17 -63 13 -239 158 -395 327 -24 26 -46 47 -50 47 -4 0 -13 -19 -20 -43 -14
-47 -28 -74 -36 -67 -8 8 -9 143 -1 171 6 22 -3 40 -54 109 -34 45 -61 85 -61
89 0 4 -44 7 -97 7 -86 -1 -102 2 -130 22 -39 28 -45 28 -37 -2 3 -13 1 -27
-5 -30 -6 -4 -11 -19 -12 -34 -1 -24 -2 -23 -10 8 -5 22 -4 47 3 66 9 27 7 37
-16 77 l-27 46 -52 -33 c-49 -32 -52 -36 -53 -77 0 -24 -4 -51 -7 -59 -4 -8
-9 -51 -11 -95 -3 -44 -9 -106 -14 -137 -5 -31 -5 -63 0 -72 5 -8 4 -17 -2
-21 -5 -3 -10 -16 -11 -28 0 -21 -1 -21 -10 2 -6 14 -6 53 -1 100 13 106 14
116 17 201 1 41 6 83 10 92 4 9 5 24 3 33 -2 13 -10 11 -43 -12 -39 -27 -40
-27 -15 -33 18 -5 9 -8 -33 -12 -32 -2 -63 -10 -69 -16 -6 -6 -12 -42 -13 -79
-2 -38 -5 -75 -8 -83 -3 -8 -8 -24 -10 -35 -4 -16 -5 -15 -6 5 -1 14 -5 32
-11 40 -5 8 -5 19 0 25 4 5 10 34 11 63 l4 52 -42 0 c-23 0 -54 5 -68 12 -37
17 -46 -2 -43 -87 2 -56 0 -70 -12 -70 -12 0 -14 16 -11 88 2 78 1 87 -15 87
-17 0 -17 1 1 14 17 11 20 25 20 87 l0 74 -60 -3 c-33 -2 -63 -7 -67 -10 -10
-10 -13 -126 -4 -141 5 -7 13 -10 20 -8 6 2 20 1 31 -4 16 -6 12 -8 -17 -8
-20 -1 -39 -5 -42 -9 -9 -16 -14 -130 -5 -143 4 -7 3 -19 -3 -26 -6 -7 -12
-56 -13 -109 -2 -52 -6 -98 -9 -101 -3 -4 -6 3 -6 15 0 11 -5 24 -10 27 -8 5
-7 11 0 20 7 9 11 45 9 94 -2 44 0 83 4 87 9 9 9 106 1 128 -7 18 -86 22 -127
7 -22 -9 -26 -17 -29 -71 -1 -34 1 -65 7 -71 5 -5 27 -10 50 -11 39 -1 39 -1
-10 -7 l-50 -6 -5 -68 c-3 -41 -1 -72 5 -77 6 -5 33 -10 60 -13 l50 -3 -57 -2
c-67 -2 -67 -2 -72 -117 -5 -103 -5 -103 -20 -75 -8 15 -10 31 -4 42 12 24 10
136 -2 143 -7 5 -8 11 -1 19 11 14 19 142 8 152 -4 4 -37 3 -74 -2 l-68 -9 -7
-55 c-10 -80 -5 -90 50 -92 l47 -1 -42 -4 c-52 -5 -59 -14 -67 -85 -4 -43 -2
-60 9 -71 12 -13 12 -16 1 -20 -19 -8 -33 -132 -17 -151 9 -10 9 -16 1 -21 -7
-4 -10 -39 -9 -91 1 -47 -1 -87 -4 -90 -13 -14 -28 10 -22 35 6 30 10 129 5
146 -2 6 0 17 4 26 4 9 6 45 4 80 l-3 64 -55 6 -55 5 55 5 55 4 3 73 3 72 -64
0 c-40 0 -68 -5 -75 -12 -13 -17 -21 -127 -10 -134 5 -3 4 -11 -2 -18 -16 -21
-25 -133 -11 -150 8 -10 9 -16 1 -21 -5 -3 -10 -39 -10 -79 l0 -74 56 -4 c30
-3 61 -11 68 -19 19 -20 41 -426 24 -446 -16 -19 -65 -44 -108 -55 -19 -4
-138 -9 -265 -9 -126 -1 -222 -3 -212 -6 25 -7 11 -23 -21 -23 -18 0 -23 -3
-14 -9 10 -6 10 -10 -2 -20 -8 -7 -21 -9 -27 -5 -7 4 -9 3 -5 -4 3 -6 2 -13
-3 -16 -8 -5 -21 15 -21 33 0 4 16 15 36 25 20 9 34 19 32 21 -2 3 -60 7 -129
10 -198 8 -1838 29 -2076 26 -31 -1 -42 -5 -45 -18 -3 -16 -5 -15 -23 3 -18
19 -35 22 -170 27 -162 7 -204 15 -256 50 -49 33 -48 56 3 97 39 32 346 296
376 325 11 10 10 20 -3 56 -9 24 -28 77 -42 116 -25 71 -35 84 -48 62 -5 -6
-11 -4 -19 7 -10 14 -16 14 -34 5 -13 -7 -27 -9 -32 -6 -6 3 -10 1 -10 -4 0
-6 -7 -11 -15 -11 -9 0 -40 -16 -70 -35 l-55 -35 0 -62 c0 -83 -15 -108 -25
-41 -8 59 -19 82 -28 59 -4 -9 -13 -16 -21 -16 -15 0 -26 -21 -26 -51 0 -23
-15 -25 -24 -3 -5 14 -8 14 -23 -2 -16 -15 -18 -38 -18 -161 l0 -143 -87 -58
-87 -57 -1 -392 0 -393 215 0 c174 0 222 3 245 15 27 14 30 14 30 0 0 -12 13
-15 63 -14 61 1 61 1 22 10 -59 14 -63 26 -14 38 24 6 60 16 79 21 222 63 527
47 695 -36 75 -36 158 -46 184 -22 11 10 14 10 18 1 4 -10 81 -13 339 -13 305
0 333 1 327 16 -4 12 -2 15 8 12 8 -3 13 -11 12 -17 -2 -8 44 -11 157 -11 136
0 160 2 160 15 0 8 5 15 10 15 6 0 10 -7 10 -15 0 -12 98 -14 751 -15 547 0
755 3 765 11 10 8 14 8 14 0 0 -7 23 -11 61 -11 47 0 65 4 75 18 13 16 15 16
28 0 12 -17 43 -18 394 -18 352 0 380 1 387 18 6 16 7 16 19 0 12 -16 32 -18
160 -18 80 0 146 3 147 8 8 108 16 116 118 120 94 5 344 -39 530 -93 l123 -35
562 0 562 0 27 238 c56 486 68 610 65 673 l-3 64 -45 -4 c-25 -1 -49 -6 -55
-11 -5 -4 -23 -10 -40 -14 -16 -4 -56 -27 -88 -52 -31 -24 -60 -44 -63 -44 -9
0 -30 -24 -37 -42 -3 -10 -13 -18 -22 -18 -8 0 -15 -6 -15 -14 0 -8 -13 -23
-30 -33 -16 -9 -30 -23 -30 -30 0 -7 -12 -27 -26 -43 -15 -16 -38 -56 -52 -87
-13 -32 -33 -75 -44 -95 -10 -21 -23 -68 -28 -105 -18 -130 -21 -143 -39 -143
-34 0 -55 31 -106 154 -25 62 -35 100 -35 140 0 113 51 309 114 435 59 118 89
222 67 235 -12 8 -26 -12 -41 -59 -7 -22 -18 -51 -25 -65 -25 -48 -73 -165
-85 -205 -7 -22 -24 -62 -39 -90 -16 -27 -38 -80 -51 -116 -27 -76 -59 -104
-142 -125 -70 -19 -75 -28 -8 -18 86 13 129 9 156 -17 28 -26 130 -228 139
-276 6 -31 5 -32 -36 -43 -28 -8 -82 -9 -158 -5 -64 4 -150 9 -191 11 -90 4
-368 30 -427 40 -29 4 -43 3 -43 -5 0 -6 -7 -11 -15 -11 -9 0 -29 -7 -44 -15
-16 -8 -31 -11 -35 -8 -11 11 -79 33 -103 33 -12 0 -23 -5 -25 -11 -3 -8 -37
-7 -117 4 -83 10 -121 11 -142 4 -39 -15 -53 1 -75 80 -12 46 -23 67 -36 71
-15 3 -16 7 -7 18 14 17 6 103 -12 132 -9 15 -10 24 -2 34 13 16 2 113 -15
130 -8 8 -8 17 -1 30 11 20 4 89 -11 119 -5 8 -5 22 0 30 10 15 78 -6 391
-125 239 -90 307 -108 449 -115 106 -5 131 -10 166 -30 23 -13 48 -21 55 -19
8 3 -4 14 -30 27 -26 14 -39 26 -33 30 8 5 5 12 -8 24 -16 13 -18 25 -13 69 3
29 10 71 15 93 5 22 23 100 39 173 16 73 36 146 44 162 8 16 15 38 15 49 0 11
5 23 11 26 6 4 8 13 5 21 -9 24 24 80 60 99 54 29 162 138 170 171 3 16 13 34
20 40 8 6 21 40 30 75 17 66 46 133 63 144 6 3 13 26 17 50 5 38 10 45 29 45
13 0 46 11 73 25 43 21 49 28 44 50 -5 29 17 35 38 10 17 -21 80 -19 96 3 13
16 13 16 14 0 0 -10 4 -18 9 -18 15 0 26 23 13 28 -6 2 -9 9 -6 16 3 8 -2 21
-11 30 -15 14 -15 16 -1 16 11 0 16 9 16 29 0 23 -6 30 -26 35 -14 4 -34 4
-44 1 -16 -5 -27 10 -34 48 0 4 -4 7 -8 7 -5 0 -11 0 -14 0 -4 0 -1 -6 5 -14
9 -11 1 -23 -42 -60 -30 -25 -59 -46 -66 -46 -6 0 -11 -9 -11 -19 0 -14 -9
-20 -37 -24 -21 -2 -42 0 -48 4 -5 6 -2 9 8 9 14 0 15 4 6 26 -5 15 -6 36 -2
48 9 28 4 138 -8 150 -5 6 -9 16 -9 23 0 8 -25 49 -56 93 -48 68 -56 87 -56
125 0 25 -3 43 -8 40 -4 -3 -11 15 -14 39 -4 25 -13 47 -22 50 -8 3 -20 19
-25 35 -7 19 -19 31 -32 33 -17 2 -21 9 -20 28 2 18 -7 32 -31 50 -43 32 -86
116 -79 154 5 23 -1 33 -28 56 -33 27 -59 79 -90 180 -8 25 -22 53 -31 62 -22
22 -23 38 -3 38 12 0 15 17 15 97 0 111 -15 210 -41 271 -11 24 -17 47 -15 51
8 12 -15 100 -30 112 -8 6 -14 22 -14 36 0 30 -26 92 -49 118 -10 11 -18 34
-18 51 0 18 -12 57 -26 86 -15 30 -27 58 -27 63 0 11 -69 183 -91 226 -15 31
-22 36 -44 32 -27 -6 -36 14 -10 23 8 4 15 12 15 19 0 17 -66 144 -87 167 -18
20 -34 46 -56 93 -32 66 -196 233 -205 207 -7 -23 -24 -12 -20 13 5 25 5 25
-68 25 -59 0 -74 -3 -74 -15 0 -8 -7 -15 -15 -15 -8 0 -15 7 -15 15 0 23 -135
22 -144 -1 -6 -16 -8 -16 -24 0 -13 11 -38 16 -85 16 -60 0 -66 -2 -69 -22 -2
-13 -7 -23 -13 -23 -5 0 -11 10 -13 23 -3 21 -8 22 -84 22 -67 0 -79 -2 -69
-14 13 -16 4 -49 -13 -43 -6 2 -11 16 -11 30 l1 27 -243 0 -243 0 10 -24 c6
-18 5 -28 -5 -36 -12 -10 -16 -9 -21 4 -3 9 -4 25 -1 36 5 20 -5 20 -1156 20
l-1162 -1 -40 -29z m2909 -255 c-3 -25 -3 -53 2 -62 4 -10 9 -38 11 -63 1 -25
5 -83 8 -130 3 -47 5 -92 4 -100 -3 -33 -9 -169 -12 -242 -2 -84 -9 -101 -27
-68 -8 15 -8 25 -1 34 7 9 9 94 5 262 -3 137 -5 273 -4 303 0 29 -5 59 -11 67
-14 17 -5 44 16 44 14 0 15 -8 9 -45z m347 -113 c-14 -27 -14 -87 0 -114 8
-14 8 -23 0 -31 -6 -6 -11 -34 -11 -62 0 -28 5 -56 11 -62 8 -8 8 -17 -1 -33
-7 -13 -9 -39 -6 -64 3 -22 5 -45 5 -51 -7 -152 -7 -251 2 -261 7 -8 7 -14 -1
-19 -6 -4 -10 -46 -9 -108 1 -56 -2 -119 -6 -140 -5 -24 -3 -42 5 -51 7 -10 8
-21 2 -33 -5 -10 -10 -54 -11 -98 -5 -225 -7 -249 -17 -252 -16 -5 -27 28 -14
41 13 13 13 133 -1 142 -8 4 -8 9 0 17 14 14 14 144 1 152 -7 4 -6 13 3 25 9
13 11 38 6 87 -3 37 -2 76 3 85 11 23 10 112 -2 124 -6 6 -6 22 0 46 6 20 10
55 10 79 -1 24 2 60 5 80 4 20 2 45 -3 55 -7 13 -7 37 0 72 7 40 6 57 -3 68
-9 12 -9 20 1 38 8 15 10 41 6 72 -8 65 -8 71 -1 128 3 29 1 54 -5 62 -8 9 -8
19 0 35 11 19 14 20 27 6 12 -11 12 -19 4 -35z m-3671 -41 c0 -11 -4 -23 -10
-26 -5 -3 -10 -30 -10 -60 0 -30 -4 -56 -9 -59 -8 -5 -14 -48 -27 -176 -10
-105 -21 -166 -32 -187 -12 -22 -17 -73 -6 -73 3 0 14 4 24 10 12 6 27 6 42 1
20 -9 19 -10 -14 -10 -31 -1 -40 -6 -53 -31 -8 -16 -15 -45 -15 -66 0 -30 3
-35 18 -29 9 4 34 9 55 12 21 3 40 10 43 14 3 5 6 33 6 61 0 29 5 59 11 65 5
7 10 36 11 65 1 29 6 60 11 68 5 8 9 37 10 65 0 27 4 55 8 62 4 6 9 34 11 61
2 26 8 58 15 69 6 12 11 35 11 51 0 16 6 35 13 41 22 18 27 1 11 -32 -10 -18
-14 -41 -10 -59 3 -16 2 -37 -3 -46 -5 -9 -11 -36 -14 -59 -3 -32 -1 -43 9
-43 8 0 14 -7 14 -15 0 -8 -9 -15 -19 -15 -23 0 -33 -25 -30 -77 2 -21 -3 -49
-10 -62 -8 -14 -11 -40 -8 -65 3 -23 1 -59 -6 -80 -9 -31 -9 -40 1 -44 9 -3 8
-9 -3 -25 -20 -29 -19 -63 4 -86 10 -10 22 -28 25 -38 5 -17 2 -19 -24 -15
-21 3 -30 10 -30 23 0 10 -4 21 -10 24 -5 3 -10 22 -10 41 0 38 -13 42 -69 23
-32 -11 -33 -13 -28 -58 2 -25 8 -56 12 -69 13 -38 -23 -15 -37 25 -11 31 -14
32 -25 17 -21 -28 -29 -6 -10 29 18 35 31 112 21 128 -4 6 -11 6 -20 -2 -24
-20 -29 -1 -7 24 19 20 47 116 37 126 -2 2 -15 -1 -29 -7 -31 -15 -45 -15 -45
-2 0 5 18 14 39 20 32 8 42 17 50 43 15 44 10 107 -7 107 -20 0 -9 24 14 30
13 3 19 14 19 35 0 27 -3 30 -32 29 -18 -1 -30 2 -27 7 3 5 16 9 28 9 33 0 50
25 51 74 1 23 4 46 8 52 3 6 9 31 13 55 7 45 19 69 35 69 5 0 9 -9 9 -19z
m-253 -3862 c6 -20 11 -21 67 -16 38 4 54 2 41 -3 -19 -8 -19 -9 2 -9 16 -1
21 -6 17 -16 -5 -12 5 -15 60 -15 52 0 64 -3 60 -14 -4 -9 6 -20 28 -29 56
-26 74 -28 88 -12 7 8 16 15 21 15 11 0 -1 -33 -15 -42 -8 -6 -8 -8 0 -8 6 0
23 12 37 26 15 15 31 23 38 18 9 -5 8 -10 -3 -18 -8 -6 -17 -18 -20 -27 -5
-14 -3 -15 18 -5 13 6 24 19 24 29 0 15 2 16 13 5 7 -7 17 -22 22 -33 8 -19 9
-19 12 2 3 13 17 32 33 43 27 19 29 20 39 3 9 -15 12 -16 20 -4 5 8 14 10 22
6 8 -5 11 -5 7 0 -13 14 46 64 102 86 101 39 290 36 290 -6 0 -41 -111 -85
-174 -69 -26 6 -37 -8 -16 -21 16 -10 12 -22 -10 -28 -22 -6 -28 -27 -7 -27 7
0 18 5 25 12 21 21 22 3 2 -30 -20 -32 -36 -38 -105 -34 l-30 2 24 -14 c22
-12 20 -14 -40 -21 -35 -5 -68 -7 -74 -5 -5 2 -23 5 -38 8 -18 3 -33 15 -42
33 -10 18 -20 26 -30 23 -21 -8 -19 -15 10 -47 25 -26 34 -30 65 -28 10 0 11
-1 2 -5 -6 -3 -9 -10 -6 -15 9 -15 -58 -1 -141 28 -38 13 -87 26 -108 28 -20
2 -42 7 -47 10 -6 3 -10 0 -10 -7 -1 -7 -10 4 -21 25 -21 40 -36 47 -46 20 -4
-10 -12 -22 -20 -26 -7 -4 -13 -17 -13 -27 0 -10 -4 -22 -10 -25 -16 -10 -11
-43 8 -48 33 -8 -37 -27 -77 -21 -38 6 -234 -10 -264 -22 -9 -3 -22 -25 -28
-48 -7 -22 -14 -35 -16 -28 -3 8 -9 10 -16 4 -15 -12 -61 4 -52 18 3 5 13 10
21 10 18 0 18 8 0 26 -15 14 -46 9 -46 -7 0 -5 -7 -9 -16 -9 -8 0 -13 4 -10 8
2 4 -11 6 -31 4 -26 -3 -38 0 -45 12 -5 9 -22 16 -38 16 -16 0 -32 4 -35 10
-6 10 -133 12 -149 2 -5 -3 -25 -6 -45 -8 -39 -4 -111 -32 -111 -45 0 -4 -10
-11 -21 -14 -17 -6 -19 -9 -8 -16 12 -7 11 -11 -2 -24 -20 -20 -73 -10 -65 11
3 8 1 14 -4 14 -6 0 -10 -6 -10 -14 0 -8 -9 -17 -19 -21 -28 -9 -71 5 -71 22
0 12 7 14 32 9 30 -6 31 -5 13 9 -20 15 -20 15 2 34 13 11 23 24 23 29 0 6 6
13 13 15 6 3 -3 6 -21 6 -20 1 -35 -5 -38 -14 -4 -8 -10 -15 -16 -15 -5 0 -6
5 -3 10 12 19 -6 31 -21 15 -10 -10 -25 -13 -42 -9 -37 9 -40 14 -18 30 26 18
37 18 30 -1 -4 -9 0 -15 10 -15 10 0 13 6 10 15 -4 11 1 15 17 16 l24 0 -25
10 c-14 6 -32 8 -41 6 -8 -2 -23 1 -33 8 -9 7 -27 11 -39 8 -18 -4 -16 -2 6
11 44 24 96 36 121 26 13 -4 29 -4 36 0 10 6 7 10 -13 15 -34 9 -35 32 -2 45
14 5 25 16 25 24 0 16 53 31 70 21 12 -8 67 11 91 31 8 8 44 18 80 23 140 22
195 32 220 42 15 6 96 12 180 14 101 2 171 8 204 18 70 21 86 21 92 -4z m1059
-314 c-3 -11 -6 -23 -6 -26 0 -4 -10 -7 -22 -7 -38 0 -102 -14 -117 -26 -7 -6
-19 -11 -25 -12 -6 0 -19 -2 -28 -2 -10 -1 -18 -9 -18 -18 0 -9 -6 -14 -12
-11 -7 2 -12 11 -11 19 3 14 -71 56 -111 64 -42 8 -39 23 5 20 54 -4 81 -15
72 -29 -3 -6 -1 -7 6 -3 15 10 53 -3 46 -15 -9 -13 19 -11 32 2 6 6 9 18 6 27
-4 10 -2 13 5 8 6 -4 20 2 30 12 14 14 33 18 86 18 63 0 67 -2 62 -21z"/>
<path d="M754 4337 c-2 -7 -3 -91 -2 -187 l3 -175 150 0 150 0 3 188 2 187
-150 0 c-113 0 -152 -3 -156 -13z m296 -47 l0 -40 -145 0 -145 0 0 40 0 40
145 0 145 0 0 -40z"/>
<path d="M3790 4302 c-36 -5 -50 -29 -50 -84 l0 -49 67 3 68 3 8 48 c12 75 -6
90 -93 79z"/>
<path d="M3417 4254 c-4 -4 -7 -37 -7 -74 l0 -67 58 5 c31 2 61 8 65 12 4 4 9
33 10 66 l2 59 -60 3 c-34 2 -64 0 -68 -4z"/>
<path d="M3775 4153 c-39 -6 -45 -17 -45 -81 l0 -53 73 3 72 3 0 65 0 65 -35
1 c-19 1 -48 -1 -65 -3z"/>
<path d="M3915 4136 c-3 -9 -7 -23 -10 -32 -3 -9 -3 -31 1 -49 6 -32 7 -33 67
-38 80 -7 89 1 85 72 l-3 56 -68 3 c-54 3 -68 0 -72 -12z"/>
<path d="M3615 4131 c-34 -7 -55 -41 -55 -91 l0 -35 67 5 68 5 3 63 3 62 -28
-1 c-15 -1 -41 -4 -58 -8z"/>
<path d="M3396 4078 c-3 -13 -6 -45 -6 -71 l0 -48 38 7 c67 12 85 25 98 76 6
26 9 49 6 52 -3 4 -33 6 -68 6 -56 0 -62 -2 -68 -22z"/>
<path d="M3732 3988 c-7 -7 -12 -38 -12 -70 l0 -58 58 -1 57 -1 -55 -11 -55
-12 -7 -60 c-8 -65 1 -87 27 -65 14 11 17 10 22 -8 6 -23 18 -28 28 -12 3 6
16 10 29 10 35 0 46 20 46 82 0 42 -4 59 -16 66 -15 8 -15 10 0 15 12 5 16 21
16 72 l0 65 -63 0 c-36 0 -68 -5 -75 -12z"/>
<path d="M3906 3984 c-3 -9 -6 -38 -6 -65 0 -49 0 -49 33 -49 17 0 39 -5 47
-10 11 -7 4 -10 -28 -10 -37 0 -44 -4 -53 -27 -5 -15 -9 -45 -7 -67 l3 -41 63
-3 c82 -4 92 5 92 79 0 49 -3 59 -17 59 -17 1 -17 1 0 14 13 10 17 28 17 75
l0 61 -69 0 c-54 0 -70 -4 -75 -16z"/>
<path d="M3580 3981 c-21 -6 -26 -14 -31 -56 -3 -28 -2 -55 3 -61 5 -7 35 -11
71 -10 l62 1 3 68 3 67 -43 -1 c-24 -1 -54 -4 -68 -8z"/>
<path d="M1683 3942 c-1 -9 -8 -53 -17 -96 -8 -44 -12 -84 -9 -89 3 -5 25 -6
49 -2 27 4 44 2 44 -4 0 -5 -21 -11 -47 -13 -45 -3 -48 -5 -51 -32 -2 -16 -1
-44 3 -63 6 -32 8 -34 38 -28 18 3 47 14 65 23 29 15 32 21 32 60 0 30 -5 44
-17 49 -14 6 -14 7 4 14 14 5 22 19 25 44 5 41 0 48 -72 113 -35 31 -46 37
-47 24z"/>
<path d="M3289 3914 c-20 -24 -87 -57 -154 -75 -48 -14 -54 -17 -29 -18 17 -1
37 -7 44 -15 6 -8 18 -12 26 -9 9 3 14 -2 14 -16 0 -24 -8 -27 -24 -7 -11 15
-98 27 -114 17 -5 -3 -13 -29 -19 -58 -10 -52 -10 -52 18 -58 15 -4 33 -13 40
-21 17 -21 50 -17 56 6 3 11 9 20 13 20 10 0 22 -59 14 -71 -3 -5 4 -9 15 -9
18 0 19 3 10 23 -7 16 -7 31 1 51 15 41 32 20 32 -41 -1 -47 0 -49 43 -70 48
-23 53 -20 47 33 -4 30 -8 34 -34 34 -35 0 -34 22 3 30 18 5 25 15 31 45 13
72 11 75 -28 75 -43 0 -37 15 10 24 39 7 46 20 46 82 0 40 -2 44 -24 44 -13 0
-29 -7 -37 -16z"/>
<path d="M2393 3843 l-53 -16 1 -41 c2 -72 11 -91 45 -88 16 2 44 8 63 14 l33
10 -6 53 c-7 58 -15 85 -25 84 -3 0 -30 -8 -58 -16z"/>
<path d="M4264 3846 c-3 -7 -4 -38 -2 -67 l3 -54 65 -6 c36 -4 69 -3 75 2 10
10 16 104 8 126 -7 19 -142 18 -149 -1z"/>
<path d="M1835 3809 c-6 -25 -4 -36 8 -43 13 -8 13 -12 2 -20 -7 -6 -16 -31
-20 -55 -7 -42 -6 -44 10 -28 20 21 60 23 52 3 -4 -11 4 -14 36 -12 31 1 43 5
45 19 3 12 -2 16 -19 15 -33 -4 -35 20 -3 28 25 7 26 8 9 15 -11 4 -33 9 -50
10 -21 1 -14 4 20 8 49 6 50 6 53 44 l3 37 -39 0 c-22 0 -53 3 -70 6 -28 6
-31 3 -37 -27z"/>
<path d="M3547 3823 c-4 -3 -7 -32 -7 -64 0 -67 9 -73 91 -67 l44 3 8 53 c12
77 8 82 -66 82 -35 0 -67 -3 -70 -7z"/>
<path d="M3412 3809 c-21 -6 -36 -19 -42 -35 -10 -26 -14 -87 -6 -95 3 -2 33
-2 68 1 l63 5 5 68 5 67 -30 -1 c-16 0 -45 -5 -63 -10z"/>
<path d="M2270 3790 c-8 -5 -27 -10 -41 -10 -37 0 -51 -21 -47 -72 l3 -43 60
3 c33 2 63 7 68 11 10 10 -5 114 -18 118 -6 1 -17 -2 -25 -7z"/>
<path d="M2062 3738 c-15 -10 -35 -18 -44 -18 -28 0 -24 -58 5 -70 l22 -9 -22
0 c-28 -1 -31 -31 -3 -31 11 0 42 -8 69 -19 l49 -18 4 29 c3 18 -1 32 -9 37
-12 6 -12 10 1 20 10 9 16 30 16 57 0 42 -1 43 -31 41 -17 -1 -43 -10 -57 -19z"/>
<path d="M2585 3726 l-50 -12 0 -60 0 -59 60 3 c33 2 64 7 69 12 11 11 -6 123
-19 125 -5 2 -32 -3 -60 -9z"/>
<path d="M2425 3683 c-61 -18 -61 -18 -70 -70 l-7 -43 34 0 c65 0 107 12 114
32 7 22 -4 98 -14 97 -4 0 -29 -7 -57 -16z"/>
<path d="M2770 3601 c-56 -11 -60 -17 -56 -74 l4 -52 55 1 c31 1 62 4 71 7 18
7 22 61 6 101 -10 27 -19 29 -80 17z"/>
<path d="M2600 3570 l-65 -5 0 -55 1 -55 64 3 c35 1 68 6 74 12 5 5 6 27 0 57
l-9 48 -65 -5z"/>
<path d="M2400 3551 l-45 -6 -3 -52 -3 -53 50 0 c27 0 61 4 76 10 24 9 26 14
23 57 -3 54 -9 56 -98 44z"/>
<path d="M770 3275 l0 -175 28 0 27 0 -9 112 c-7 84 -7 113 2 116 8 2 12 26
12 63 0 59 0 59 -30 59 l-30 0 0 -175z"/>
<path d="M2537 3423 c-4 -3 -7 -32 -7 -64 l0 -58 38 5 c111 15 102 9 102 69
l0 55 -63 0 c-35 0 -67 -3 -70 -7z"/>
<path d="M2390 3411 l-35 -6 -3 -67 c-2 -38 1 -68 5 -68 4 1 35 6 68 13 l60
13 3 62 3 62 -33 -1 c-18 -1 -49 -4 -68 -8z"/>
<path d="M1762 3248 l-2 -148 205 0 205 0 -2 148 c-1 115 -3 131 -7 73 -7 -83
-6 -83 -103 -96 -43 -6 -47 -8 -55 -43 -8 -32 -12 -37 -38 -37 -26 0 -31 5
-39 37 -8 33 -13 37 -50 43 -23 4 -55 9 -73 12 l-32 5 -4 77 c-1 42 -4 10 -5
-71z"/>
<path d="M2543 3273 c-9 -3 -13 -26 -13 -64 0 -66 -1 -66 94 -53 44 6 46 8 46
40 0 19 -4 34 -10 34 -14 0 -12 37 3 43 6 3 -15 5 -48 5 -33 0 -66 -2 -72 -5z"/>
<path d="M2415 3242 c-3 -9 -15 -13 -35 -10 l-30 5 0 -58 c0 -32 4 -60 9 -63
4 -3 36 -1 70 5 l61 11 0 49 c0 37 -4 49 -15 49 -9 0 -18 6 -21 13 -7 18 -32
17 -39 -1z"/>
<path d="M3541 3176 c-7 -9 -11 -38 -9 -73 l3 -58 70 3 c38 1 71 4 73 7 2 2 7
18 12 37 4 18 11 40 14 48 5 12 -8 19 -61 33 -82 21 -87 21 -102 3z"/>
<path d="M2714 3104 c-3 -17 -4 -46 -2 -65 l3 -34 65 0 65 0 3 31 c2 19 -5 45
-17 65 -19 31 -25 34 -66 34 -42 0 -45 -2 -51 -31z"/>
<path d="M2581 3119 c-55 -11 -58 -13 -44 -50 9 -24 9 -31 -1 -35 -20 -8 -8
-56 13 -50 9 2 40 8 69 11 l52 7 0 41 c0 88 -5 93 -89 76z"/>
<path d="M2402 3087 l-43 -10 3 -64 3 -64 35 6 c97 16 90 10 90 81 0 72 0 72
-88 51z"/>
<path d="M2260 3063 c-46 -8 -70 -41 -70 -94 0 -47 15 -74 26 -46 7 19 55 32
64 17 4 -6 13 -8 22 -5 11 4 16 23 17 71 2 69 3 68 -59 57z"/>
<path d="M3425 3010 l-60 -5 0 -75 0 -75 60 3 c75 4 85 15 78 90 -3 31 -8 59
-12 62 -3 3 -33 3 -66 0z"/>
<path d="M3277 2975 c-11 -7 -41 -19 -68 -26 l-50 -13 3 -56 3 -55 50 3 c62 4
51 -15 -16 -26 l-44 -7 -3 -58 c-3 -53 -1 -58 22 -67 15 -5 40 -7 57 -3 28 5
31 4 25 -14 -4 -14 2 -25 23 -41 l29 -21 5 27 c4 19 0 32 -14 44 -19 16 -19
17 1 23 19 6 21 14 21 88 0 45 1 111 2 147 2 70 -10 84 -46 55z"/>
<path d="M2765 2971 l-50 -6 -3 -63 -3 -63 63 3 63 3 3 68 c2 50 0 67 -10 65
-7 0 -35 -4 -63 -7z"/>
<path d="M2565 2951 c-29 -6 -30 -8 -29 -64 1 -32 3 -59 5 -61 2 -2 31 -1 64
2 l60 7 3 63 3 62 -38 -1 c-21 -1 -51 -4 -68 -8z"/>
<path d="M2420 2926 l-55 -11 -3 -50 c-3 -74 4 -81 72 -65 l56 13 0 64 c0 34
-3 62 -7 62 -5 -1 -33 -6 -63 -13z"/>
<path d="M2241 2887 l-43 -10 7 -61 c3 -34 8 -62 10 -64 2 -2 29 2 60 10 55
13 56 14 51 42 -3 16 -6 44 -6 62 0 38 -4 39 -79 21z"/>
<path d="M3420 2842 c-30 -2 -58 -9 -62 -15 -4 -7 -8 -41 -8 -76 l0 -63 68 7
c37 4 71 10 75 14 11 11 4 134 -8 136 -5 0 -35 -1 -65 -3z"/>
<path d="M13 2693 c-10 -3 -13 -60 -13 -235 l0 -230 33 5 c17 4 61 9 97 12 82
8 190 42 190 60 0 7 -12 18 -27 23 -21 8 -23 11 -9 11 11 1 16 4 13 8 -4 4 7
13 24 20 30 12 31 15 25 55 -4 24 -9 63 -11 87 -2 35 -9 49 -31 65 -58 42 -93
77 -88 89 3 9 -15 12 -63 13 -39 1 -69 6 -71 13 -4 11 -46 14 -69 4z"/>
<path d="M3568 2683 c-32 -4 -38 -8 -38 -27 0 -13 -3 -44 -6 -70 l-7 -46 51 0
c86 0 99 9 104 77 7 76 5 77 -104 66z"/>
<path d="M3390 2671 c-33 -6 -35 -9 -43 -59 -13 -77 -9 -82 67 -82 36 0 67 3
69 8 3 4 7 36 8 72 l4 65 -35 1 c-19 1 -51 -1 -70 -5z"/>
<path d="M4064 2526 c-3 -8 -6 -43 -7 -78 l-2 -63 35 -3 35 -4 -35 -11 -35
-12 -3 -73 -3 -73 63 3 63 3 6 65 c8 79 5 88 -29 93 l-27 4 28 2 c20 1 30 8
37 27 15 39 12 79 -7 96 -43 35 -109 49 -119 24z"/>
<path d="M3723 2523 c-21 -4 -23 -10 -23 -74 l0 -70 68 3 67 3 3 73 3 72 -48
-1 c-26 -1 -58 -4 -70 -6z"/>
<path d="M3875 2476 c-11 -89 -10 -91 70 -91 l70 0 6 65 c3 36 4 68 2 73 -2 4
-35 7 -73 7 l-69 0 -6 -54z"/>
<path d="M3573 2513 l-53 -4 -1 -55 c-1 -29 -2 -60 -3 -66 -1 -16 44 -22 101
-13 l43 6 0 70 c0 60 -2 69 -17 67 -10 -1 -42 -3 -70 -5z"/>
<path d="M4222 2352 c-5 -9 -9 -43 -11 -74 l-2 -58 38 0 c21 1 56 11 78 24 34
19 40 28 43 61 2 21 0 41 -5 46 -4 4 -36 10 -71 13 -51 4 -63 2 -70 -12z"/>
<path d="M3877 2353 c-3 -5 -6 -37 -8 -73 l-4 -65 71 -3 71 -3 6 68 c3 37 3
71 0 75 -6 10 -130 10 -136 1z"/>
<path d="M3575 2341 l-60 -6 -3 -68 -3 -68 66 2 c36 1 67 5 69 8 9 15 10 134
1 136 -5 1 -37 -1 -70 -4z"/>
<path d="M3697 2343 c-7 -7 -10 -127 -3 -134 2 -2 34 -2 70 -1 l66 4 0 69 0
69 -63 0 c-35 0 -67 -3 -70 -7z"/>
<path d="M3878 2183 c-12 -3 -17 -19 -20 -66 -2 -34 0 -68 5 -74 6 -8 34 -13
73 -13 74 0 77 6 72 101 l-3 54 -55 2 c-30 0 -62 -1 -72 -4z"/>
<path d="M3686 2168 c-12 -38 -13 -127 -3 -131 18 -6 122 -1 135 7 7 4 12 33
12 72 l0 64 -70 0 c-48 0 -72 -4 -74 -12z"/>
<path d="M3389 2163 c-64 -4 -69 -10 -69 -95 l0 -48 70 0 69 0 6 33 c9 44 2
110 -10 112 -5 0 -35 -1 -66 -2z"/>
<path d="M3506 2116 c-9 -80 -4 -86 65 -86 67 0 65 -2 72 83 l6 57 -68 0 -68
0 -7 -54z"/>
<path d="M656 2114 c5 -26 2 -33 -14 -38 -18 -6 -62 -102 -62 -135 0 -6 -11
-16 -25 -21 -21 -8 -25 -16 -25 -53 0 -33 6 -49 24 -66 14 -13 29 -20 35 -16
6 3 11 1 11 -4 0 -6 6 -11 14 -11 9 0 12 7 9 20 -3 11 -1 20 5 20 5 0 12 21
15 46 5 49 30 85 47 68 13 -13 -9 -135 -28 -151 -14 -12 -20 -58 -9 -69 3 -3
19 2 36 11 31 15 40 38 21 50 -19 12 -10 53 20 85 16 18 27 36 24 41 -3 5 0 9
5 9 6 0 11 4 11 10 0 5 -13 7 -30 4 -22 -5 -31 -2 -36 10 -9 24 -41 20 -70 -9
-19 -19 -23 -30 -18 -52 7 -26 6 -27 -12 -13 -28 22 -32 30 -26 53 6 24 40 56
59 57 7 0 33 10 58 22 42 21 44 23 28 40 -21 24 -33 23 -33 -2 0 -25 -16 -26
-30 -1 -21 41 -13 53 33 49 23 -3 51 -8 62 -12 11 -5 0 5 -25 20 -25 15 -53
37 -62 49 -17 20 -18 19 -12 -11z"/>
<path d="M3231 2074 c-18 -13 -48 -26 -66 -30 -33 -6 -51 -27 -39 -46 3 -5 29
-8 57 -6 62 4 78 -18 20 -27 -78 -13 -80 -14 -87 -46 -11 -57 -7 -96 11 -103
9 -4 37 -4 61 0 32 5 43 4 38 -5 -4 -6 -31 -11 -61 -11 -62 0 -66 -5 -68 -95
-1 -58 0 -57 -52 -39 -18 6 -33 -10 -43 -46 -8 -30 -11 -32 -17 -16 -12 28 15
69 53 81 31 9 32 11 32 60 l0 51 -66 13 c-80 16 -84 13 -84 -76 0 -61 1 -63
26 -63 14 0 23 -4 19 -10 -4 -6 -11 -8 -16 -4 -5 3 -16 0 -24 -6 -17 -14 -21
-135 -5 -145 6 -4 4 -12 -5 -21 -17 -18 -21 -139 -5 -149 6 -4 5 -14 -4 -28
-8 -14 -11 -40 -9 -69 l5 -47 63 -6 c35 -4 68 -4 74 0 6 3 11 31 11 62 0 47
-3 56 -21 60 -20 5 -19 6 3 17 19 10 24 21 28 74 3 35 1 67 -4 72 -5 5 -2 22
7 42 13 26 17 29 17 12 0 -12 7 -27 16 -35 14 -11 14 -13 -1 -22 -13 -7 -16
-26 -16 -95 0 -48 -1 -109 -2 -137 l-2 -50 88 -3 87 -3 0 91 c0 49 4 90 9 90
15 0 31 -26 22 -36 -5 -5 -11 -38 -13 -74 l-3 -65 80 0 80 0 2 110 c0 61 3
128 7 150 3 22 1 47 -4 55 -5 8 -5 19 0 25 4 5 9 39 11 75 l4 65 -72 2 c-81 1
-79 4 -89 -85 -4 -40 -3 -62 5 -66 6 -4 8 -13 4 -19 -5 -7 -13 -34 -19 -62
l-12 -50 -2 60 c-2 33 -2 67 0 75 9 50 21 580 13 579 -4 0 -23 -11 -42 -25z"/>
<path d="M3676 2002 c-2 -4 -6 -34 -7 -67 l-3 -59 33 -9 c18 -4 52 -7 74 -5
l42 3 3 73 3 72 -70 0 c-38 0 -72 -3 -75 -8z"/>
<path d="M3328 1989 c-14 -8 -18 -24 -18 -75 l0 -66 73 4 72 5 3 69 3 69 -58
2 c-32 2 -66 -2 -75 -8z"/>
<path d="M3504 1985 c-2 -5 -5 -35 -6 -65 l-3 -55 59 -3 c32 -2 62 1 67 5 4 4
9 35 11 68 l3 60 -64 0 c-35 0 -65 -4 -67 -10z"/>
<path d="M2937 1913 c-3 -32 -2 -62 2 -66 5 -5 37 -9 72 -10 l64 -2 3 59 c4
70 -2 76 -79 76 l-56 0 -6 -57z"/>
<path d="M3535 1833 c-22 -3 -43 -10 -47 -16 -4 -7 -8 -38 -8 -71 l0 -59 66 6
c36 2 70 9 75 14 6 6 9 37 7 69 -3 66 -4 66 -93 57z"/>
<path d="M3307 1823 c-3 -5 -7 -37 -8 -73 l-4 -65 69 -3 c38 -2 72 1 77 5 10
11 20 108 13 128 -5 11 -22 15 -74 15 -38 0 -71 -3 -73 -7z"/>
<path d="M1280 1480 c0 -193 1 -200 20 -200 19 0 20 7 20 200 0 193 -1 200
-20 200 -19 0 -20 -7 -20 -200z"/>
<path d="M815 1055 c-82 -75 -167 -153 -189 -174 l-38 -39 173 -6 c96 -3 350
-8 564 -11 215 -3 568 -10 785 -15 217 -5 578 -12 801 -16 l406 -7 13 172 c7
95 9 175 5 179 -4 4 -208 9 -453 11 -724 7 -737 7 -737 -4 0 -18 -28 -80 -45
-100 -10 -11 -17 -35 -17 -54 0 -24 -7 -40 -22 -53 -34 -27 -65 -22 -107 16
-36 33 -37 35 -22 58 16 24 15 26 -45 91 l-62 67 -145 0 c-80 1 -175 -5 -211
-11 -56 -11 -76 -10 -135 3 -38 9 -136 19 -219 22 l-150 6 -150 -135z"/>
<path d="M99 1087 c-26 -37 -81 -192 -77 -221 l3 -27 64 33 63 33 -6 80 c-7
85 -14 125 -25 125 -3 0 -13 -11 -22 -23z"/>
</g>
</svg>
